<mxfile host="65bd71144e">
    <diagram id="NSWfVfiXW057Fgb_ExUC" name="Page-1">
        <mxGraphModel dx="862" dy="404" grid="1" gridSize="10" guides="1" tooltips="1" connect="1" arrows="1" fold="1" page="1" pageScale="1" pageWidth="850" pageHeight="1100" math="0" shadow="0">
            <root>
                <mxCell id="0"/>
                <mxCell id="1" parent="0"/>
                <mxCell id="4" value="&lt;font face=&quot;Verdana&quot; color=&quot;#3399ff&quot;&gt;D&lt;/font&gt;" style="text;html=1;align=center;verticalAlign=middle;resizable=0;points=[];autosize=1;strokeColor=none;fillColor=none;fontSize=50;fontFamily=Georgia;fontColor=#FFFFFF;" vertex="1" parent="1">
                    <mxGeometry x="280" y="120" width="60" height="80" as="geometry"/>
                </mxCell>
                <mxCell id="6" value="" style="ellipse;whiteSpace=wrap;html=1;aspect=fixed;labelBackgroundColor=none;labelBorderColor=none;fontFamily=Verdana;fontSize=50;fontColor=#0000FF;gradientColor=none;gradientDirection=north;fillColor=none;strokeWidth=5;strokeColor=#3399FF;" vertex="1" parent="1">
                    <mxGeometry x="270" y="120" width="80" height="80" as="geometry"/>
                </mxCell>
            </root>
        </mxGraphModel>
    </diagram>
</mxfile>